<?xml version="1.0" encoding="utf-8"?>
<!-- Generator: Adobe Illustrator 23.0.0, SVG Export Plug-In . SVG Version: 6.00 Build 0)  -->
<svg version="1.1" id="Layer_1" xmlns="http://www.w3.org/2000/svg" xmlns:xlink="http://www.w3.org/1999/xlink" x="0px" y="0px"
	 viewBox="0 0 360 360" style="enable-background:new 0 0 360 360;" xml:space="preserve">
<style type="text/css">
	.st0{fill:#FFFFFF;}
</style>
<text transform="matrix(1 0 0 1 126.7187 -38.1179)"><tspan x="0" y="0" style="font-family:'Avenir-Roman'; font-size:28.1px;">ABBY GO</tspan><tspan x="121.64" y="0" style="font-family:'Avenir-Roman'; font-size:28.1px; letter-spacing:-1;">T</tspan><tspan x="136.73" y="0" style="font-family:'Avenir-Roman'; font-size:28.1px;">TLICH</tspan></text>
<g>
	<path class="st0" d="M84.8,188.76c-0.08,1.3-0.26,2.56-0.55,3.78c-0.4,1.69-1.1,3.2-2.09,4.52c-1,1.32-2.35,2.37-4.07,3.14
		c-1.72,0.77-3.87,1.16-6.46,1.16c-2.69,0-5.07-0.51-7.14-1.53c-2.07-1.02-4.02-2.53-5.87-4.52l-4.18,4.78
		c2.49,2.44,5.12,4.16,7.88,5.16c2.77,1,5.87,1.49,9.3,1.49c6.18,0,10.9-1.66,14.16-4.97c3-3.04,4.61-7.39,4.86-13.01H84.8z"/>
	<path class="st0" d="M58.92,179.65c1.64,1.6,3.61,2.84,5.9,3.74c2.29,0.9,4.81,1.35,7.55,1.35c2.34,0,4.63-0.52,6.88-1.57
		c2.24-1.05,4.06-2.69,5.46-4.93h0.15v4.48c0,0.34-0.01,0.68-0.03,1.01h5.84c0.01-0.33,0.02-0.67,0.02-1.01V149.3h-5.83v5.98H84.7
		c-0.6-1.15-1.35-2.15-2.24-3.03c-0.9-0.87-1.91-1.59-3.03-2.17c-1.12-0.57-2.28-1-3.48-1.27c-1.2-0.27-2.39-0.41-3.59-0.41
		c-2.79,0-5.33,0.42-7.62,1.27c-2.29,0.85-4.25,2.06-5.87,3.62c-1.62,1.57-2.88,3.5-3.77,5.79c-0.9,2.29-1.35,4.86-1.35,7.7
		c0,2.59,0.45,4.98,1.35,7.17C56,176.16,57.27,178.05,58.92,179.65z M60.94,161.67c0.6-1.57,1.43-2.94,2.5-4.11
		c1.07-1.17,2.37-2.09,3.89-2.77c1.52-0.67,3.2-1.01,5.04-1.01c1.84,0,3.54,0.31,5.08,0.93c1.54,0.62,2.86,1.51,3.96,2.65
		c1.1,1.15,1.94,2.5,2.54,4.07c0.6,1.57,0.9,3.3,0.9,5.19c0,1.69-0.27,3.3-0.82,4.82c-0.55,1.52-1.36,2.87-2.43,4.04
		c-1.07,1.17-2.38,2.11-3.92,2.8c-1.55,0.7-3.31,1.05-5.31,1.05c-1.69,0-3.29-0.32-4.78-0.97c-1.49-0.65-2.8-1.53-3.92-2.65
		c-1.12-1.12-2.01-2.44-2.65-3.96c-0.65-1.52-0.97-3.18-0.97-4.97C60.04,164.95,60.34,163.24,60.94,161.67z"/>
	<g>
		<path class="st0" d="M105.27,149.27h2.22l8.46,19.9h-2.75l-2.02-4.89h-9.95l-2.05,4.89H96.5L105.27,149.27z M106.34,152.3h-0.06
			l-4.13,9.78h8.12L106.34,152.3z"/>
		<path class="st0" d="M118.11,149.27h6.07c0.82,0,1.63,0.08,2.42,0.25c0.79,0.17,1.49,0.45,2.11,0.83c0.62,0.38,1.12,0.89,1.5,1.5
			c0.38,0.62,0.58,1.39,0.58,2.3c0,1.16-0.31,2.12-0.94,2.88c-0.63,0.76-1.47,1.3-2.54,1.62v0.06c0.64,0.06,1.23,0.22,1.79,0.49
			c0.55,0.27,1.03,0.62,1.43,1.05c0.4,0.43,0.72,0.93,0.94,1.5c0.22,0.57,0.34,1.19,0.34,1.84c0,1.11-0.23,2.01-0.69,2.73
			s-1.06,1.28-1.8,1.7c-0.74,0.42-1.57,0.72-2.5,0.89c-0.93,0.17-1.85,0.25-2.77,0.25h-5.93V149.27z M120.47,157.7h3.26
			c0.56,0,1.11-0.04,1.64-0.11c0.53-0.07,1.02-0.23,1.45-0.46c0.43-0.23,0.78-0.56,1.04-0.98c0.26-0.42,0.39-0.98,0.39-1.67
			c0-0.62-0.12-1.12-0.37-1.5c-0.24-0.38-0.57-0.69-0.97-0.91c-0.4-0.23-0.86-0.38-1.38-0.46c-0.52-0.08-1.04-0.13-1.56-0.13h-3.51
			V157.7z M120.47,166.97h3.99c0.58,0,1.16-0.06,1.73-0.18c0.57-0.12,1.09-0.32,1.54-0.59s0.83-0.63,1.11-1.07
			c0.28-0.44,0.42-0.98,0.42-1.62c0-0.69-0.14-1.27-0.41-1.74s-0.63-0.84-1.07-1.12c-0.44-0.28-0.95-0.48-1.52-0.59
			s-1.16-0.17-1.76-0.17h-4.05V166.97z"/>
		<path class="st0" d="M135.33,149.27h6.07c0.82,0,1.63,0.08,2.42,0.25c0.79,0.17,1.49,0.45,2.11,0.83c0.62,0.38,1.12,0.89,1.5,1.5
			c0.38,0.62,0.58,1.39,0.58,2.3c0,1.16-0.31,2.12-0.94,2.88c-0.63,0.76-1.47,1.3-2.54,1.62v0.06c0.64,0.06,1.23,0.22,1.79,0.49
			c0.55,0.27,1.03,0.62,1.43,1.05c0.4,0.43,0.72,0.93,0.94,1.5c0.22,0.57,0.34,1.19,0.34,1.84c0,1.11-0.23,2.01-0.69,2.73
			s-1.06,1.28-1.8,1.7c-0.74,0.42-1.57,0.72-2.5,0.89c-0.93,0.17-1.85,0.25-2.77,0.25h-5.93V149.27z M137.69,157.7h3.26
			c0.56,0,1.11-0.04,1.64-0.11c0.53-0.07,1.02-0.23,1.45-0.46c0.43-0.23,0.78-0.56,1.04-0.98c0.26-0.42,0.39-0.98,0.39-1.67
			c0-0.62-0.12-1.12-0.37-1.5c-0.24-0.38-0.57-0.69-0.97-0.91c-0.4-0.23-0.86-0.38-1.38-0.46c-0.52-0.08-1.04-0.13-1.56-0.13h-3.51
			V157.7z M137.69,166.97h3.99c0.58,0,1.16-0.06,1.73-0.18c0.57-0.12,1.09-0.32,1.54-0.59s0.83-0.63,1.11-1.07
			c0.28-0.44,0.42-0.98,0.42-1.62c0-0.69-0.14-1.27-0.41-1.74s-0.63-0.84-1.07-1.12c-0.44-0.28-0.95-0.48-1.52-0.59
			s-1.16-0.17-1.76-0.17h-4.05V166.97z"/>
		<path class="st0" d="M157.25,160.59l-7.42-11.32h3.01l5.59,8.99l5.76-8.99h2.84l-7.42,11.32v8.57h-2.36V160.59z"/>
		<path class="st0" d="M193.02,167.82c-1.14,0.64-2.35,1.11-3.61,1.4s-2.54,0.45-3.84,0.45c-1.55,0-2.98-0.25-4.27-0.76
			c-1.29-0.51-2.41-1.22-3.36-2.14c-0.95-0.92-1.68-2.02-2.21-3.3c-0.52-1.28-0.79-2.7-0.79-4.26c0-1.57,0.28-3,0.83-4.29
			s1.32-2.38,2.29-3.29c0.97-0.91,2.11-1.62,3.4-2.12s2.69-0.76,4.19-0.76c1.31,0,2.57,0.2,3.78,0.59c1.21,0.39,2.29,1.07,3.25,2.02
			l-1.77,1.85c-0.67-0.73-1.49-1.29-2.46-1.69c-0.97-0.39-1.95-0.59-2.96-0.59c-1.14,0-2.2,0.21-3.18,0.62
			c-0.97,0.41-1.82,0.98-2.54,1.71s-1.28,1.6-1.69,2.61c-0.4,1.01-0.6,2.12-0.6,3.32c0,1.18,0.2,2.28,0.6,3.29
			c0.4,1.01,0.96,1.89,1.69,2.63c0.72,0.74,1.59,1.32,2.6,1.73c1.01,0.41,2.13,0.62,3.34,0.62c0.81,0,1.65-0.1,2.53-0.29
			c0.88-0.2,1.69-0.48,2.42-0.86v-6.1h-4.58v-2.19h6.94V167.82z"/>
		<path class="st0" d="M206.74,169.67c-1.52,0-2.91-0.26-4.17-0.79c-1.26-0.52-2.36-1.25-3.29-2.18c-0.93-0.93-1.65-2.03-2.16-3.32
			c-0.52-1.28-0.77-2.67-0.77-4.17c0-1.5,0.26-2.89,0.77-4.17c0.51-1.28,1.24-2.39,2.16-3.32c0.93-0.93,2.02-1.65,3.29-2.18
			s2.66-0.79,4.17-0.79s2.91,0.26,4.17,0.79s2.36,1.25,3.29,2.18c0.93,0.93,1.65,2.03,2.16,3.32s0.77,2.67,0.77,4.17
			c0,1.5-0.26,2.89-0.77,4.17s-1.24,2.39-2.16,3.32c-0.93,0.93-2.02,1.65-3.29,2.18C209.64,169.41,208.25,169.67,206.74,169.67z
			 M206.74,167.48c1.16,0,2.22-0.22,3.19-0.65c0.96-0.43,1.79-1.02,2.49-1.77c0.69-0.75,1.23-1.62,1.62-2.63
			c0.38-1,0.58-2.07,0.58-3.22s-0.19-2.22-0.58-3.22c-0.38-1-0.92-1.88-1.62-2.63s-1.52-1.34-2.49-1.77
			c-0.96-0.43-2.03-0.65-3.19-0.65c-1.16,0-2.22,0.22-3.19,0.65c-0.96,0.43-1.79,1.02-2.49,1.77c-0.69,0.75-1.23,1.62-1.62,2.63
			c-0.38,1-0.58,2.08-0.58,3.22s0.19,2.22,0.58,3.22c0.38,1,0.92,1.88,1.62,2.63c0.69,0.75,1.52,1.34,2.49,1.77
			C204.51,167.26,205.57,167.48,206.74,167.48z"/>
		<path class="st0" d="M233.8,151.46h-6.58v17.7h-2.36v-17.7h-6.58v-2.19h15.51V151.46z"/>
		<path class="st0" d="M248.89,151.46h-6.58v17.7h-2.36v-17.7h-6.58v-2.19h15.51V151.46z"/>
		<path class="st0" d="M251.19,149.27h2.36v17.7h9.1v2.19h-11.46V149.27z"/>
		<path class="st0" d="M264.76,149.27h2.36v19.9h-2.36V149.27z"/>
		<path class="st0" d="M285.53,153.37c-0.6-0.81-1.34-1.41-2.22-1.81s-1.8-0.6-2.75-0.6c-1.11,0-2.12,0.23-3.05,0.67
			c-0.93,0.45-1.73,1.05-2.4,1.81c-0.67,0.76-1.2,1.64-1.57,2.64c-0.38,1-0.56,2.05-0.56,3.13c0,1.16,0.19,2.24,0.56,3.25
			c0.37,1,0.89,1.87,1.56,2.61c0.66,0.74,1.46,1.33,2.39,1.76c0.93,0.43,1.95,0.65,3.08,0.65c1.22,0,2.3-0.24,3.26-0.72
			c0.96-0.48,1.79-1.17,2.5-2.07l1.77,1.49c-0.9,1.2-1.98,2.08-3.25,2.64s-2.69,0.84-4.29,0.84c-1.42,0-2.75-0.26-3.99-0.79
			c-1.24-0.52-2.31-1.25-3.22-2.18c-0.91-0.93-1.62-2.03-2.14-3.3c-0.52-1.27-0.77-2.67-0.77-4.19c0-1.46,0.25-2.83,0.75-4.1
			c0.5-1.27,1.19-2.38,2.09-3.32c0.9-0.94,1.97-1.68,3.2-2.22c1.24-0.54,2.59-0.81,4.07-0.81c1.35,0,2.65,0.24,3.89,0.73
			c1.25,0.49,2.29,1.28,3.13,2.39L285.53,153.37z"/>
		<path class="st0" d="M290.89,149.27h2.36v8.43h10.62v-8.43h2.36v19.9h-2.36v-9.27h-10.62v9.27h-2.36V149.27z"/>
	</g>
	<g>
		<path class="st0" d="M121.74,176.73h2.72c0.23,0,0.48,0.03,0.74,0.08s0.52,0.14,0.78,0.25c0.26,0.12,0.5,0.27,0.74,0.46
			c0.24,0.19,0.45,0.41,0.62,0.67c0.18,0.26,0.32,0.57,0.43,0.91c0.11,0.34,0.16,0.73,0.16,1.17s-0.05,0.82-0.16,1.17
			c-0.11,0.34-0.25,0.65-0.43,0.91c-0.18,0.26-0.39,0.49-0.62,0.67c-0.24,0.19-0.48,0.34-0.74,0.46c-0.26,0.12-0.52,0.2-0.78,0.25
			c-0.26,0.05-0.51,0.08-0.74,0.08h-2.72V176.73z M122.58,183.03h1.6c0.41,0,0.78-0.05,1.13-0.16c0.35-0.11,0.65-0.27,0.9-0.49
			c0.25-0.22,0.45-0.51,0.6-0.86c0.15-0.35,0.22-0.76,0.22-1.25s-0.07-0.9-0.22-1.25c-0.15-0.35-0.35-0.63-0.6-0.85
			c-0.25-0.22-0.55-0.39-0.9-0.5s-0.72-0.16-1.13-0.16h-1.6V183.03z"/>
		<path class="st0" d="M131.5,176.73h4.45v0.78h-3.61v2.22h3.37v0.78h-3.37v2.52h3.79v0.78h-4.63V176.73z"/>
		<path class="st0" d="M138.7,176.73h0.95l2.18,5.82h0.02l2.25-5.82h0.89l-2.77,7.08h-0.81L138.7,176.73z"/>
		<path class="st0" d="M148,176.73h4.45v0.78h-3.61v2.22h3.37v0.78h-3.37v2.52h3.79v0.78H148V176.73z"/>
		<path class="st0" d="M156.16,176.73H157v6.3h3.24v0.78h-4.08V176.73z"/>
		<path class="st0" d="M166.68,183.99c-0.54,0-1.04-0.09-1.49-0.28c-0.45-0.19-0.84-0.45-1.17-0.78s-0.59-0.72-0.77-1.18
			c-0.18-0.46-0.28-0.95-0.28-1.49s0.09-1.03,0.28-1.49c0.18-0.46,0.44-0.85,0.77-1.18s0.72-0.59,1.17-0.78
			c0.45-0.19,0.95-0.28,1.49-0.28s1.04,0.09,1.49,0.28c0.45,0.19,0.84,0.45,1.17,0.78s0.59,0.72,0.77,1.18
			c0.18,0.46,0.28,0.95,0.28,1.49s-0.09,1.03-0.28,1.49c-0.18,0.46-0.44,0.85-0.77,1.18s-0.72,0.59-1.17,0.78
			S167.22,183.99,166.68,183.99z M166.68,183.21c0.41,0,0.79-0.08,1.13-0.23c0.34-0.15,0.64-0.36,0.89-0.63
			c0.25-0.27,0.44-0.58,0.57-0.93c0.14-0.36,0.21-0.74,0.21-1.15c0-0.41-0.07-0.79-0.21-1.14c-0.14-0.36-0.33-0.67-0.57-0.94
			c-0.25-0.27-0.54-0.48-0.89-0.63c-0.34-0.15-0.72-0.23-1.13-0.23s-0.79,0.08-1.13,0.23c-0.34,0.15-0.64,0.36-0.88,0.63
			c-0.25,0.27-0.44,0.58-0.58,0.94c-0.14,0.36-0.21,0.74-0.21,1.14c0,0.41,0.07,0.79,0.21,1.15c0.14,0.36,0.33,0.67,0.58,0.93
			c0.25,0.27,0.54,0.48,0.88,0.63C165.89,183.13,166.27,183.21,166.68,183.21z"/>
		<path class="st0" d="M173.96,176.73h2.1c0.33,0,0.64,0.03,0.93,0.09c0.3,0.06,0.56,0.17,0.79,0.32c0.23,0.15,0.41,0.35,0.55,0.6
			s0.21,0.56,0.21,0.93c0,0.39-0.07,0.71-0.22,0.96c-0.15,0.25-0.33,0.45-0.57,0.6c-0.23,0.15-0.48,0.25-0.75,0.31
			c-0.27,0.06-0.53,0.09-0.78,0.09h-1.42v3.18h-0.84V176.73z M174.8,179.85h1.42c0.42,0,0.76-0.09,1.03-0.29
			c0.26-0.19,0.39-0.49,0.39-0.88c0-0.4-0.13-0.7-0.39-0.88c-0.26-0.19-0.61-0.29-1.03-0.29h-1.42V179.85z"/>
		<path class="st0" d="M182.12,176.73h4.45v0.78h-3.61v2.22h3.37v0.78h-3.37v2.52h3.79v0.78h-4.63V176.73z"/>
		<path class="st0" d="M190.28,176.73h1.81c0.34,0,0.68,0.02,1.01,0.06c0.34,0.04,0.64,0.13,0.91,0.26
			c0.27,0.13,0.48,0.33,0.65,0.58c0.17,0.26,0.25,0.6,0.25,1.04c0,0.52-0.16,0.94-0.47,1.26s-0.75,0.52-1.3,0.61l2.01,3.26h-1.03
			l-1.92-3.18h-1.08v3.18h-0.84V176.73z M191.12,179.85h0.75c0.23,0,0.48-0.01,0.73-0.02c0.25-0.01,0.48-0.06,0.69-0.13
			c0.21-0.07,0.38-0.19,0.52-0.34c0.14-0.16,0.21-0.38,0.21-0.67c0-0.25-0.05-0.46-0.15-0.61s-0.23-0.27-0.39-0.35
			c-0.16-0.08-0.35-0.14-0.55-0.17c-0.2-0.03-0.41-0.04-0.61-0.04h-1.18V179.85z"/>
		<path class="st0" d="M203.47,180.45h2.28v-2.28h0.66v2.28h2.28v0.66h-2.28v2.28h-0.66v-2.28h-2.28V180.45z"/>
		<path class="st0" d="M217.4,176.73h2.72c0.23,0,0.48,0.03,0.74,0.08s0.52,0.14,0.78,0.25c0.26,0.12,0.5,0.27,0.74,0.46
			c0.24,0.19,0.45,0.41,0.62,0.67c0.18,0.26,0.32,0.57,0.43,0.91c0.11,0.34,0.16,0.73,0.16,1.17s-0.05,0.82-0.16,1.17
			c-0.11,0.34-0.25,0.65-0.43,0.91c-0.18,0.26-0.39,0.49-0.62,0.67c-0.24,0.19-0.48,0.34-0.74,0.46c-0.26,0.12-0.52,0.2-0.78,0.25
			c-0.26,0.05-0.51,0.08-0.74,0.08h-2.72V176.73z M218.24,183.03h1.6c0.41,0,0.78-0.05,1.13-0.16c0.35-0.11,0.65-0.27,0.9-0.49
			c0.25-0.22,0.45-0.51,0.6-0.86c0.15-0.35,0.22-0.76,0.22-1.25s-0.07-0.9-0.22-1.25c-0.15-0.35-0.35-0.63-0.6-0.85
			c-0.25-0.22-0.55-0.39-0.9-0.5s-0.72-0.16-1.13-0.16h-1.6V183.03z"/>
		<path class="st0" d="M227.17,176.73h4.45v0.78h-3.61v2.22h3.37v0.78h-3.37v2.52h3.79v0.78h-4.63V176.73z"/>
		<path class="st0" d="M238.69,177.98c-0.14-0.23-0.33-0.39-0.56-0.5s-0.48-0.16-0.73-0.16c-0.19,0-0.37,0.02-0.55,0.07
			c-0.18,0.05-0.34,0.12-0.49,0.21c-0.14,0.09-0.26,0.22-0.34,0.37c-0.09,0.15-0.13,0.33-0.13,0.54c0,0.16,0.02,0.3,0.07,0.42
			c0.05,0.12,0.13,0.24,0.25,0.33c0.11,0.1,0.27,0.19,0.46,0.28s0.43,0.17,0.71,0.26c0.27,0.09,0.54,0.18,0.79,0.28
			c0.26,0.1,0.48,0.23,0.68,0.38c0.2,0.15,0.35,0.34,0.47,0.58c0.12,0.23,0.17,0.52,0.17,0.87c0,0.35-0.07,0.66-0.21,0.92
			c-0.14,0.26-0.33,0.47-0.55,0.64c-0.23,0.17-0.5,0.3-0.79,0.38c-0.3,0.08-0.61,0.12-0.93,0.12c-0.21,0-0.41-0.02-0.62-0.05
			c-0.21-0.04-0.41-0.09-0.6-0.17c-0.19-0.08-0.37-0.18-0.54-0.3c-0.17-0.12-0.31-0.28-0.43-0.46l0.72-0.59
			c0.15,0.26,0.37,0.46,0.64,0.59c0.27,0.13,0.56,0.2,0.87,0.2c0.18,0,0.36-0.03,0.54-0.08c0.18-0.05,0.35-0.13,0.5-0.24
			c0.15-0.1,0.27-0.23,0.36-0.38c0.09-0.15,0.14-0.33,0.14-0.53c0-0.22-0.04-0.4-0.11-0.54s-0.19-0.25-0.34-0.35
			c-0.15-0.1-0.35-0.19-0.58-0.27s-0.51-0.17-0.82-0.28c-0.25-0.08-0.49-0.17-0.7-0.28c-0.21-0.1-0.4-0.23-0.55-0.38
			c-0.16-0.15-0.28-0.33-0.37-0.54s-0.13-0.46-0.13-0.75c0-0.34,0.07-0.64,0.2-0.89c0.13-0.25,0.31-0.46,0.54-0.63
			s0.48-0.3,0.77-0.38c0.29-0.09,0.59-0.13,0.9-0.13c0.4,0,0.76,0.06,1.09,0.18c0.33,0.12,0.62,0.34,0.88,0.65L238.69,177.98z"/>
		<path class="st0" d="M243.12,176.73h0.84v7.08h-0.84V176.73z"/>
		<path class="st0" d="M253.97,183.33c-0.41,0.23-0.83,0.39-1.29,0.5c-0.45,0.11-0.91,0.16-1.37,0.16c-0.55,0-1.06-0.09-1.52-0.27
			c-0.46-0.18-0.86-0.43-1.2-0.76c-0.34-0.33-0.6-0.72-0.79-1.18c-0.19-0.46-0.28-0.96-0.28-1.51c0-0.56,0.1-1.07,0.29-1.53
			c0.2-0.46,0.47-0.85,0.82-1.17c0.35-0.32,0.75-0.57,1.21-0.75c0.46-0.18,0.96-0.27,1.49-0.27c0.47,0,0.92,0.07,1.34,0.21
			c0.43,0.14,0.82,0.38,1.16,0.72l-0.63,0.66c-0.24-0.26-0.53-0.46-0.88-0.6c-0.34-0.14-0.7-0.21-1.06-0.21
			c-0.41,0-0.78,0.07-1.13,0.22s-0.65,0.35-0.91,0.61c-0.26,0.26-0.46,0.57-0.6,0.93c-0.14,0.36-0.21,0.75-0.21,1.18
			c0,0.42,0.07,0.81,0.21,1.17s0.34,0.67,0.6,0.94c0.26,0.26,0.57,0.47,0.93,0.61c0.36,0.15,0.76,0.22,1.19,0.22
			c0.29,0,0.59-0.04,0.9-0.11s0.6-0.17,0.86-0.3v-2.17h-1.63v-0.78h2.47V183.33z"/>
		<path class="st0" d="M257.96,176.73h1.06l4.1,5.88h0.02v-5.88h0.84v7.08h-1.06l-4.1-5.88h-0.02v5.88h-0.84V176.73z"/>
		<path class="st0" d="M267.97,176.73h4.45v0.78h-3.61v2.22h3.37v0.78h-3.37v2.52h3.79v0.78h-4.63V176.73z"/>
		<path class="st0" d="M276.13,176.73h1.81c0.34,0,0.68,0.02,1.01,0.06c0.34,0.04,0.64,0.13,0.91,0.26
			c0.27,0.13,0.48,0.33,0.65,0.58c0.17,0.26,0.25,0.6,0.25,1.04c0,0.52-0.16,0.94-0.47,1.26s-0.75,0.52-1.3,0.61l2.01,3.26h-1.03
			l-1.92-3.18h-1.08v3.18h-0.84V176.73z M276.97,179.85h0.75c0.23,0,0.48-0.01,0.73-0.02c0.25-0.01,0.48-0.06,0.69-0.13
			c0.21-0.07,0.38-0.19,0.52-0.34c0.14-0.16,0.21-0.38,0.21-0.67c0-0.25-0.05-0.46-0.15-0.61s-0.23-0.27-0.39-0.35
			c-0.16-0.08-0.35-0.14-0.55-0.17c-0.2-0.03-0.41-0.04-0.61-0.04h-1.18V179.85z"/>
	</g>
</g>
<text transform="matrix(1 0 0 1 151.3645 -23.0343)" style="font-family:'Avenir-Roman'; font-size:10px; letter-spacing:2;">DEVELOPER + DESIGNER</text>
</svg>
