<?xml version="1.0" encoding="utf-8"?>
<!-- Generator: Adobe Illustrator 23.0.0, SVG Export Plug-In . SVG Version: 6.00 Build 0)  -->
<svg version="1.1" id="Layer_1" xmlns="http://www.w3.org/2000/svg" xmlns:xlink="http://www.w3.org/1999/xlink" x="0px" y="0px"
	 viewBox="0 0 360 360" style="enable-background:new 0 0 360 360;" xml:space="preserve">
<style type="text/css">
	.st0{fill:#FFFFFF;}
</style>
<g>
	<g>
		<path class="st0" d="M117.14,199.96v-43.25v-33.17h-2.17v33.17v20.98c-0.64-1.07-1.42-2.09-2.34-3.07
			c-0.92-0.98-1.94-1.84-3.07-2.59c-1.13-0.75-2.36-1.33-3.68-1.76c-1.32-0.43-2.73-0.64-4.22-0.64c-2.22,0-4.27,0.47-6.14,1.41
			c-1.88,0.94-3.5,2.2-4.86,3.77c-1.37,1.58-2.43,3.41-3.2,5.5c-0.77,2.09-1.15,4.29-1.15,6.59c0,2.17,0.4,4.29,1.18,6.33
			c0.79,2.05,1.9,3.87,3.33,5.47c1.43,1.6,3.12,2.89,5.09,3.87c1.96,0.98,4.09,1.47,6.4,1.47c1.24,0,2.47-0.18,3.71-0.54
			c1.24-0.36,2.41-0.86,3.52-1.5c1.11-0.64,2.14-1.42,3.1-2.34c0.96-0.92,1.78-1.93,2.46-3.04v4.03c0,0.73,0.26,1.38,0.77,1.95
			c0.51,0.58,1.15,0.86,1.92,0.86c0.21,0,0.38-0.02,0.51-0.06v-2.05C117.52,201.36,117.14,200.89,117.14,199.96z M114.96,192.41
			c-0.13,1.28-0.61,2.51-1.44,3.68c-0.83,1.17-1.85,2.2-3.07,3.07c-1.22,0.87-2.53,1.57-3.94,2.08c-1.41,0.51-2.73,0.77-3.96,0.77
			c-1.96,0-3.8-0.42-5.5-1.25c-1.71-0.83-3.19-1.94-4.45-3.33c-1.26-1.38-2.25-2.98-2.98-4.8c-0.72-1.81-1.09-3.72-1.09-5.73
			c0-1.92,0.32-3.78,0.96-5.6c0.64-1.81,1.54-3.43,2.69-4.86c1.15-1.43,2.56-2.58,4.22-3.46c1.66-0.87,3.52-1.31,5.57-1.31
			c1.28,0,2.59,0.25,3.93,0.74c1.34,0.49,2.61,1.15,3.81,1.98c1.19,0.83,2.25,1.81,3.17,2.94c0.92,1.13,1.61,2.34,2.08,3.61V192.41z
			"/>
		<path class="st0" d="M152.71,174.65c-1.45-1.56-3.16-2.78-5.12-3.68c-1.96-0.9-4.09-1.34-6.4-1.34c-2.26,0-4.35,0.45-6.27,1.34
			c-1.92,0.9-3.61,2.11-5.05,3.65c-1.45,1.54-2.58,3.33-3.39,5.37c-0.81,2.05-1.22,4.24-1.22,6.59c0,2.39,0.42,4.64,1.25,6.75
			c0.83,2.11,1.98,3.97,3.46,5.57c1.47,1.6,3.19,2.86,5.15,3.77c1.96,0.92,4.07,1.38,6.33,1.38c1.49,0,2.94-0.2,4.35-0.61
			s2.72-0.96,3.93-1.66c1.21-0.7,2.27-1.56,3.17-2.56c0.9-1,1.58-2.08,2.05-3.23l-1.98-0.51c-0.47,0.98-1.09,1.89-1.85,2.72
			c-0.77,0.83-1.66,1.55-2.69,2.14c-1.02,0.6-2.12,1.06-3.29,1.37c-1.17,0.32-2.36,0.48-3.55,0.48c-1.84,0-3.57-0.37-5.21-1.12
			c-1.64-0.75-3.09-1.76-4.35-3.04c-1.26-1.28-2.28-2.8-3.07-4.57c-0.79-1.77-1.27-3.68-1.44-5.73h29.81
			c0.04-0.04,0.06-0.19,0.06-0.45c0-0.26,0-0.43,0-0.51c0-2.34-0.42-4.56-1.25-6.65C155.3,178.03,154.16,176.21,152.71,174.65z
			 M127.5,185.88c0.13-2.05,0.56-3.94,1.31-5.69c0.75-1.75,1.73-3.26,2.94-4.54c1.22-1.28,2.63-2.28,4.25-3.01
			c1.62-0.72,3.37-1.09,5.25-1.09s3.62,0.35,5.25,1.06c1.62,0.7,3.06,1.7,4.32,2.97c1.26,1.28,2.27,2.79,3.04,4.54
			c0.77,1.75,1.22,3.67,1.34,5.76H127.5z"/>
		<path class="st0" d="M183.93,188.44c-1.11-0.64-2.45-1.19-4.03-1.66c-1.58-0.47-3.39-0.94-5.44-1.41c-1.62-0.38-3-0.74-4.13-1.06
			c-1.13-0.32-2.07-0.7-2.82-1.15c-0.75-0.45-1.29-1.01-1.63-1.7c-0.34-0.68-0.51-1.54-0.51-2.56c0-1.28,0.26-2.39,0.77-3.33
			c0.51-0.94,1.2-1.72,2.08-2.34c0.87-0.62,1.89-1.07,3.04-1.34c1.15-0.28,2.39-0.42,3.71-0.42c2.05,0,3.98,0.34,5.79,1.02
			c1.81,0.68,3.19,1.66,4.13,2.94l1.47-1.09c-0.9-1.36-2.31-2.5-4.25-3.39c-1.94-0.9-4.25-1.34-6.94-1.34
			c-1.62,0-3.14,0.19-4.57,0.58c-1.43,0.38-2.69,0.97-3.77,1.76c-1.09,0.79-1.95,1.78-2.59,2.97c-0.64,1.19-0.96,2.62-0.96,4.29
			c0,1.32,0.21,2.41,0.64,3.26c0.42,0.85,1.09,1.56,1.98,2.11c0.9,0.55,2.02,1.03,3.36,1.44c1.34,0.41,2.93,0.82,4.77,1.25
			c1.79,0.43,3.38,0.84,4.77,1.25c1.38,0.41,2.55,0.87,3.49,1.41c0.94,0.53,1.65,1.17,2.14,1.92c0.49,0.75,0.74,1.67,0.74,2.78
			c0,2.39-0.96,4.24-2.88,5.57c-1.92,1.32-4.44,1.98-7.55,1.98c-2.3,0-4.39-0.4-6.27-1.22c-1.88-0.81-3.71-2.03-5.5-3.65l-1.22,1.47
			c1.71,1.79,3.67,3.11,5.89,3.97c2.22,0.85,4.61,1.28,7.17,1.28c1.88,0,3.59-0.23,5.15-0.67s2.88-1.1,3.97-1.95
			c1.09-0.85,1.93-1.87,2.53-3.04c0.6-1.17,0.9-2.51,0.9-4c0-1.45-0.29-2.64-0.86-3.58C185.88,189.87,185.04,189.08,183.93,188.44z"
			/>
		<rect x="195.12" y="170.14" class="st0" width="2.17" height="33.27"/>
		<rect x="195.12" y="156.71" class="st0" width="2.17" height="5.37"/>
		<path class="st0" d="M234.15,177.69c-0.77-1.11-1.62-2.15-2.56-3.13c-0.94-0.98-1.96-1.83-3.07-2.56c-1.11-0.72-2.3-1.3-3.58-1.73
			c-1.28-0.43-2.64-0.64-4.09-0.64c-2.3,0-4.4,0.48-6.3,1.44c-1.9,0.96-3.53,2.24-4.89,3.84c-1.36,1.6-2.42,3.43-3.17,5.5
			c-0.75,2.07-1.12,4.23-1.12,6.49c0,2.13,0.39,4.22,1.18,6.27c0.79,2.05,1.89,3.87,3.3,5.47c1.41,1.6,3.09,2.89,5.05,3.87
			c1.96,0.98,4.09,1.47,6.4,1.47c1.24,0,2.46-0.18,3.68-0.54s2.38-0.86,3.49-1.5c1.11-0.64,2.14-1.41,3.1-2.3
			c0.96-0.9,1.78-1.9,2.46-3.01v7.8c0,1.88-0.34,3.52-1.02,4.93c-0.68,1.41-1.62,2.59-2.82,3.55c-1.19,0.96-2.57,1.67-4.13,2.14
			c-1.56,0.47-3.23,0.7-5.02,0.7c-2.64,0-5.12-0.53-7.42-1.6c-2.3-1.07-4.14-2.79-5.5-5.18l-1.6,0.9c0.64,1.15,1.4,2.21,2.27,3.17
			c0.87,0.96,1.89,1.78,3.04,2.46c1.15,0.68,2.48,1.22,4,1.6c1.51,0.38,3.25,0.58,5.21,0.58c2,0,3.92-0.27,5.76-0.8
			c1.83-0.53,3.44-1.35,4.83-2.46c1.38-1.11,2.5-2.48,3.33-4.13c0.83-1.64,1.25-3.59,1.25-5.85v-34.29h-2.05V177.69z M234.02,192.41
			c-0.13,1.15-0.57,2.29-1.31,3.42c-0.75,1.13-1.7,2.16-2.85,3.07c-1.15,0.92-2.44,1.66-3.87,2.24c-1.43,0.58-2.89,0.86-4.38,0.86
			c-1.96,0-3.8-0.42-5.5-1.25c-1.71-0.83-3.19-1.94-4.45-3.33c-1.26-1.38-2.25-2.98-2.97-4.8c-0.72-1.81-1.09-3.72-1.09-5.73
			c0-1.83,0.3-3.66,0.9-5.47c0.6-1.81,1.47-3.44,2.62-4.89c1.15-1.45,2.56-2.62,4.22-3.52c1.66-0.9,3.56-1.34,5.69-1.34
			c1.36,0,2.71,0.23,4.03,0.7c1.32,0.47,2.56,1.11,3.71,1.92c1.15,0.81,2.19,1.79,3.1,2.94c0.92,1.15,1.63,2.39,2.14,3.71V192.41z"
			/>
		<path class="st0" d="M270.71,173.37c-1.56-2.5-4.08-3.74-7.58-3.74c-1.49,0-2.95,0.21-4.38,0.64s-2.78,1.02-4.06,1.79
			c-1.28,0.77-2.43,1.7-3.45,2.78s-1.88,2.29-2.56,3.61v-8.32h-2.11v33.27h2.17v-20.79c0.43-1.58,1.12-3.03,2.08-4.35
			c0.96-1.32,2.07-2.47,3.33-3.46c1.26-0.98,2.63-1.75,4.13-2.3c1.49-0.55,2.98-0.83,4.48-0.83c2.82,0,4.87,1.06,6.17,3.17
			c1.3,2.11,1.95,5.45,1.95,10.01v18.55h0v33.17h2.17v-33.17V184.6C273.04,179.61,272.27,175.87,270.71,173.37z"/>
	</g>
</g>
</svg>
